<?xml version="1.0" encoding="utf-8"?>
<!DOCTYPE score-partwise  PUBLIC "-//Recordare//DTD MusicXML 3.1 Partwise//EN" "http://www.musicxml.org/dtds/partwise.dtd">
<score-partwise version="3.1">
  <movement-title>Tadd_s_Delight.mxl</movement-title>
  <identification>
    <creator type="composer">Music21</creator>
    <encoding>
      <encoding-date>2023-11-30</encoding-date>
      <software>music21 v.8.3.0</software>
      <software>MuseScore 3.6.2</software>
      <supports attribute="new-system" element="print" type="yes" value="yes" />
      <supports attribute="new-page" element="print" type="yes" value="yes" />
    </encoding>
  </identification>
  <defaults>
    <scaling>
      <millimeters>7</millimeters>
      <tenths>40</tenths>
    </scaling>
    <page-layout>
      <page-height>1697.14</page-height>
      <page-width>1200</page-width>
      <page-margins>
        <left-margin>57.1429</left-margin>
        <right-margin>57.1429</right-margin>
        <top-margin>57.1429</top-margin>
        <bottom-margin>114.286</bottom-margin>
      </page-margins>
    </page-layout>
    <word-font font-family="FreeSerif" font-size="10" />
    <lyric-font font-family="FreeSerif" font-size="11" />
  </defaults>
  <credit page="1">
    <credit-words default-x="600" default-y="1640" font-family="Edwin" font-size="24" justify="center" valign="top">Tadd's Delight</credit-words>
  </credit>
  <credit page="1">
    <credit-words default-x="1142.86" default-y="1540" font-family="Edwin" font-size="12" justify="right" valign="top">Tadd Dameron</credit-words>
  </credit>
  <part-list>
    <score-part id="P1">
      <part-name print-object="no">Lead sheet</part-name>
      <part-abbreviation>Pno</part-abbreviation>
      <score-instrument id="I859fb5aa33fd9f6bf4a787caa5f871c6">
        <instrument-name>Piano</instrument-name>
        <instrument-abbreviation>Pno</instrument-abbreviation>
      </score-instrument>
      <midi-instrument id="I859fb5aa33fd9f6bf4a787caa5f871c6">
        <midi-channel>1</midi-channel>
        <midi-program>1</midi-program>
      </midi-instrument>
    </score-part>
  </part-list>
  <!--=========================== Part 1 ===========================-->
  <part id="P1">
    <!--========================= Measure 1 ==========================-->
    <measure number="1" width="306.79">
      <print>
        <system-layout>
          <system-margins>
            <left-margin>50</left-margin>
            <right-margin>0</right-margin>
          </system-margins>
          <top-system-distance>267.45</top-system-distance>
        </system-layout>
      </print>
      <attributes>
        <divisions>10080</divisions>
        <key>
          <fifths>-4</fifths>
          <mode>major</mode>
        </key>
        <time>
          <beats>4</beats>
          <beat-type>4</beat-type>
        </time>
        <clef>
          <sign>G</sign>
          <line>2</line>
        </clef>
      </attributes>
      <direction placement="above">
        <direction-type>
          <rehearsal default-x="-13.55" default-y="22.72" enclosure="none" font-size="14" halign="center" relative-y="30" valign="middle">A</rehearsal>
        </direction-type>
      </direction>
      <direction placement="above">
        <direction-type>
          <rehearsal default-x="-13.55" default-y="67.92" enclosure="none" font-size="14" halign="center" relative-y="30" valign="middle">Swing</rehearsal>
        </direction-type>
      </direction>
      <direction placement="above">
        <direction-type>
          <rehearsal default-x="-13.55" default-y="110.7" enclosure="none" font-size="14" halign="center" relative-y="30" valign="middle">180_Ab</rehearsal>
        </direction-type>
      </direction>
      <harmony>
        <root>
          <root-step>B</root-step>
          <root-alter>-1</root-alter>
        </root>
        <kind text="m7">minor-seventh</kind>
      </harmony>
      <note default-x="121.84" default-y="-25">
        <pitch>
          <step>A</step>
          <alter>-1</alter>
          <octave>4</octave>
        </pitch>
        <duration>10080</duration>
        <type>quarter</type>
        <stem>up</stem>
        <lyric name="1" number="1">
          <syllabic>single</syllabic>
          <text>Bbm9</text>
        </lyric>
      </note>
      <note>
        <rest />
        <duration>10080</duration>
        <type>quarter</type>
      </note>
      <note>
        <rest />
        <duration>5040</duration>
        <type>eighth</type>
      </note>
      <note default-x="246.9" default-y="-15">
        <pitch>
          <step>C</step>
          <octave>5</octave>
        </pitch>
        <duration>15120</duration>
        <type>quarter</type>
        <dot />
        <stem>down</stem>
      </note>
    </measure>
    <!--========================= Measure 2 ==========================-->
    <measure number="2" width="252.83">
      <harmony>
        <root>
          <root-step>B</root-step>
          <root-alter>-1</root-alter>
        </root>
        <kind text="m7">minor-seventh</kind>
      </harmony>
      <note default-x="15.5" default-y="-25">
        <pitch>
          <step>A</step>
          <alter>-1</alter>
          <octave>4</octave>
        </pitch>
        <duration>5040</duration>
        <type>eighth</type>
        <stem>up</stem>
        <lyric name="1" number="1">
          <syllabic>single</syllabic>
          <text>DbmΔ9</text>
        </lyric>
      </note>
      <note default-x="55.41" default-y="-15">
        <pitch>
          <step>C</step>
          <octave>5</octave>
        </pitch>
        <duration>15120</duration>
        <type>quarter</type>
        <dot />
        <stem>down</stem>
      </note>
      <harmony>
        <root>
          <root-step>E</root-step>
          <root-alter>-1</root-alter>
        </root>
        <kind text="7">dominant</kind>
        <degree>
          <degree-value>9</degree-value>
          <degree-alter>-1</degree-alter>
          <degree-type>add</degree-type>
        </degree>
      </harmony>
      <note default-x="133.27" default-y="-40">
        <pitch>
          <step>E</step>
          <alter>0</alter>
          <octave>4</octave>
        </pitch>
        <duration>5040</duration>
        <type>eighth</type>
        <accidental>natural</accidental>
        <stem>up</stem>
        <lyric name="1" number="1">
          <syllabic>single</syllabic>
          <text>Dbm6</text>
        </lyric>
      </note>
      <note default-x="173.17" default-y="-20">
        <pitch>
          <step>B</step>
          <alter>-1</alter>
          <octave>4</octave>
        </pitch>
        <duration>15120</duration>
        <type>quarter</type>
        <dot />
        <stem>down</stem>
      </note>
    </measure>
    <!--========================= Measure 3 ==========================-->
    <measure number="3" width="225.64">
      <harmony>
        <root>
          <root-step>A</root-step>
          <root-alter>-1</root-alter>
        </root>
        <kind text="maj7">major-seventh</kind>
      </harmony>
      <note default-x="15.5" default-y="-40">
        <pitch>
          <step>E</step>
          <alter>-1</alter>
          <octave>4</octave>
        </pitch>
        <duration>10080</duration>
        <type>quarter</type>
        <stem>up</stem>
        <lyric name="1" number="1">
          <syllabic>single</syllabic>
          <text>Bbm11</text>
        </lyric>
      </note>
      <note>
        <rest />
        <duration>10080</duration>
        <type>quarter</type>
      </note>
      <note>
        <rest />
        <duration>5040</duration>
        <type>eighth</type>
      </note>
      <note default-x="137.03" default-y="-50">
        <pitch>
          <step>C</step>
          <octave>4</octave>
        </pitch>
        <duration>5040</duration>
        <type>eighth</type>
        <stem>up</stem>
        <beam number="1">begin</beam>
      </note>
      <note default-x="165.97" default-y="-40">
        <pitch>
          <step>E</step>
          <alter>-1</alter>
          <octave>4</octave>
        </pitch>
        <duration>5040</duration>
        <type>eighth</type>
        <stem>up</stem>
        <beam number="1">continue</beam>
      </note>
      <note default-x="194.91" default-y="-35">
        <pitch>
          <step>F</step>
          <octave>4</octave>
        </pitch>
        <duration>5040</duration>
        <type>eighth</type>
        <stem>up</stem>
        <beam number="1">end</beam>
      </note>
    </measure>
    <!--========================= Measure 4 ==========================-->
    <measure number="4" width="250.45">
      <harmony>
        <root>
          <root-step>C</root-step>
        </root>
        <kind>half-diminished</kind>
      </harmony>
      <note default-x="19.32" default-y="-30">
        <pitch>
          <step>G</step>
          <alter>-1</alter>
          <octave>4</octave>
        </pitch>
        <duration>10080</duration>
        <type>quarter</type>
        <accidental>flat</accidental>
        <stem>up</stem>
        <lyric name="1" number="1">
          <syllabic>single</syllabic>
          <text>Eb13#9</text>
        </lyric>
      </note>
      <note default-x="75.33" default-y="-20">
        <pitch>
          <step>B</step>
          <alter>-1</alter>
          <octave>4</octave>
        </pitch>
        <duration>5040</duration>
        <type>eighth</type>
        <stem>down</stem>
        <beam number="1">begin</beam>
      </note>
      <note default-x="110.34" default-y="-10">
        <pitch>
          <step>D</step>
          <alter>-1</alter>
          <octave>5</octave>
        </pitch>
        <duration>5040</duration>
        <type>eighth</type>
        <stem>down</stem>
        <beam number="1">end</beam>
      </note>
      <harmony>
        <root>
          <root-step>F</root-step>
        </root>
        <kind text="7">dominant</kind>
      </harmony>
      <note>
        <rest />
        <duration>5040</duration>
        <type>eighth</type>
        <lyric name="1" number="1">
          <syllabic>single</syllabic>
          <text>Cm</text>
        </lyric>
      </note>
      <note default-x="180.35" default-y="-15">
        <pitch>
          <step>C</step>
          <octave>5</octave>
        </pitch>
        <duration>15120</duration>
        <type>quarter</type>
        <dot />
        <stem>down</stem>
      </note>
    </measure>
    <!--========================= Measure 5 ==========================-->
    <measure number="5" width="306.92">
      <print new-system="yes">
        <system-layout>
          <system-margins>
            <left-margin>0</left-margin>
            <right-margin>0</right-margin>
          </system-margins>
          <system-distance>124.04</system-distance>
        </system-layout>
      </print>
      <harmony>
        <root>
          <root-step>B</root-step>
          <root-alter>-1</root-alter>
        </root>
        <kind text="m7">minor-seventh</kind>
      </harmony>
      <note default-x="106.71" default-y="-25">
        <pitch>
          <step>A</step>
          <alter>-1</alter>
          <octave>4</octave>
        </pitch>
        <duration>10080</duration>
        <type>quarter</type>
        <stem>up</stem>
        <lyric name="1" number="1">
          <syllabic>single</syllabic>
          <text>Fm7</text>
        </lyric>
      </note>
      <note>
        <rest />
        <duration>10080</duration>
        <type>quarter</type>
      </note>
      <note>
        <rest />
        <duration>5040</duration>
        <type>eighth</type>
      </note>
      <note default-x="242.19" default-y="-15">
        <pitch>
          <step>C</step>
          <octave>5</octave>
        </pitch>
        <duration>15120</duration>
        <type>quarter</type>
        <dot />
        <stem>down</stem>
      </note>
    </measure>
    <!--========================= Measure 6 ==========================-->
    <measure number="6" width="268.09">
      <harmony>
        <root>
          <root-step>B</root-step>
          <root-alter>-1</root-alter>
        </root>
        <kind text="m7">minor-seventh</kind>
      </harmony>
      <note default-x="15.5" default-y="-25">
        <pitch>
          <step>A</step>
          <alter>-1</alter>
          <octave>4</octave>
        </pitch>
        <duration>5040</duration>
        <type>eighth</type>
        <stem>up</stem>
        <lyric name="1" number="1">
          <syllabic>single</syllabic>
          <text>Bbm9</text>
        </lyric>
      </note>
      <note default-x="57.99" default-y="-15">
        <pitch>
          <step>C</step>
          <octave>5</octave>
        </pitch>
        <duration>15120</duration>
        <type>quarter</type>
        <dot />
        <stem>down</stem>
      </note>
      <harmony>
        <root>
          <root-step>E</root-step>
          <root-alter>-1</root-alter>
        </root>
        <kind text="7">dominant</kind>
        <degree>
          <degree-value>9</degree-value>
          <degree-alter>-1</degree-alter>
          <degree-type>add</degree-type>
        </degree>
      </harmony>
      <note default-x="140.9" default-y="-40">
        <pitch>
          <step>E</step>
          <alter>0</alter>
          <octave>4</octave>
        </pitch>
        <duration>5040</duration>
        <type>eighth</type>
        <accidental>natural</accidental>
        <stem>up</stem>
        <lyric name="1" number="1">
          <syllabic>single</syllabic>
          <text>Dbm6</text>
        </lyric>
      </note>
      <note default-x="183.39" default-y="-20">
        <pitch>
          <step>B</step>
          <alter>-1</alter>
          <octave>4</octave>
        </pitch>
        <duration>15120</duration>
        <type>quarter</type>
        <dot />
        <stem>down</stem>
      </note>
    </measure>
    <!--========================= Measure 7 ==========================-->
    <measure number="7" width="240.9">
      <harmony>
        <root>
          <root-step>A</root-step>
          <root-alter>-1</root-alter>
        </root>
        <kind text="maj7">major-seventh</kind>
      </harmony>
      <note default-x="15.5" default-y="-40">
        <pitch>
          <step>E</step>
          <alter>-1</alter>
          <octave>4</octave>
        </pitch>
        <duration>10080</duration>
        <type>quarter</type>
        <stem>up</stem>
        <lyric name="1" number="1">
          <syllabic>single</syllabic>
          <text>Bbm11</text>
        </lyric>
      </note>
      <note>
        <rest />
        <duration>10080</duration>
        <type>quarter</type>
      </note>
      <note>
        <rest />
        <duration>5040</duration>
        <type>eighth</type>
      </note>
      <note default-x="145.94" default-y="-50">
        <pitch>
          <step>C</step>
          <octave>4</octave>
        </pitch>
        <duration>5040</duration>
        <type>eighth</type>
        <stem>up</stem>
        <beam number="1">begin</beam>
      </note>
      <note default-x="176.99" default-y="-40">
        <pitch>
          <step>E</step>
          <alter>-1</alter>
          <octave>4</octave>
        </pitch>
        <duration>5040</duration>
        <type>eighth</type>
        <stem>up</stem>
        <beam number="1">continue</beam>
      </note>
      <note default-x="208.05" default-y="-35">
        <pitch>
          <step>F</step>
          <octave>4</octave>
        </pitch>
        <duration>5040</duration>
        <type>eighth</type>
        <stem>up</stem>
        <beam number="1">end</beam>
      </note>
    </measure>
    <!--========================= Measure 8 ==========================-->
    <measure number="8" width="269.8">
      <harmony>
        <root>
          <root-step>E</root-step>
          <root-alter>-1</root-alter>
        </root>
        <kind text="m7">minor-seventh</kind>
      </harmony>
      <note default-x="19.32" default-y="-30">
        <pitch>
          <step>G</step>
          <alter>-1</alter>
          <octave>4</octave>
        </pitch>
        <duration>10080</duration>
        <type>quarter</type>
        <accidental>flat</accidental>
        <stem>up</stem>
        <lyric name="1" number="1">
          <syllabic>single</syllabic>
          <text>Eb13#9</text>
        </lyric>
      </note>
      <note default-x="70.51" default-y="-20">
        <pitch>
          <step>B</step>
          <alter>-1</alter>
          <octave>4</octave>
        </pitch>
        <duration>5040</duration>
        <type>eighth</type>
        <stem>down</stem>
        <beam number="1">begin</beam>
      </note>
      <note default-x="102.51" default-y="-10">
        <pitch>
          <step>D</step>
          <alter>-1</alter>
          <octave>5</octave>
        </pitch>
        <duration>5040</duration>
        <type>eighth</type>
        <stem>down</stem>
        <beam number="1">end</beam>
      </note>
      <harmony>
        <root>
          <root-step>A</root-step>
          <root-alter>-1</root-alter>
        </root>
        <kind text="7">dominant</kind>
      </harmony>
      <note>
        <rest />
        <duration>5040</duration>
        <type>eighth</type>
        <lyric name="1" number="1">
          <syllabic>single</syllabic>
          <text>Ab7#9</text>
        </lyric>
      </note>
      <note>
        <rest />
        <duration>5040</duration>
        <type>eighth</type>
      </note>
      <note>
        <rest />
        <duration>5040</duration>
        <type>eighth</type>
      </note>
      <note default-x="230.5" default-y="-15">
        <pitch>
          <step>C</step>
          <octave>5</octave>
        </pitch>
        <duration>5040</duration>
        <type>eighth</type>
        <stem>down</stem>
      </note>
      <barline location="right">
        <bar-style>light-light</bar-style>
      </barline>
    </measure>
    <!--========================= Measure 9 ==========================-->
    <measure number="9" width="308.66">
      <print new-system="yes">
        <system-layout>
          <system-margins>
            <left-margin>0</left-margin>
            <right-margin>0</right-margin>
          </system-margins>
          <system-distance>124.04</system-distance>
        </system-layout>
      </print>
      <direction placement="above">
        <direction-type>
          <rehearsal default-x="-25" enclosure="none" font-size="14" halign="center" relative-y="30" valign="middle">B</rehearsal>
        </direction-type>
      </direction>
      <harmony>
        <root>
          <root-step>D</root-step>
          <root-alter>-1</root-alter>
        </root>
        <kind text="maj7">major-seventh</kind>
      </harmony>
      <note default-x="106.71" default-y="-5">
        <pitch>
          <step>E</step>
          <alter>-1</alter>
          <octave>5</octave>
        </pitch>
        <duration>5040</duration>
        <type>eighth</type>
        <stem>down</stem>
        <beam number="1">begin</beam>
        <lyric name="1" number="1">
          <syllabic>single</syllabic>
          <text>Db6/9</text>
        </lyric>
      </note>
      <note default-x="138.99" default-y="-20">
        <pitch>
          <step>B</step>
          <alter>-1</alter>
          <octave>4</octave>
        </pitch>
        <duration>5040</duration>
        <type>eighth</type>
        <stem>down</stem>
        <beam number="1">continue</beam>
      </note>
      <note default-x="171.28" default-y="-20">
        <pitch>
          <step>B</step>
          <alter>-1</alter>
          <octave>4</octave>
        </pitch>
        <duration>5040</duration>
        <type>eighth</type>
        <stem>down</stem>
        <beam number="1">continue</beam>
      </note>
      <note default-x="203.56" default-y="-20">
        <pitch>
          <step>B</step>
          <alter>-1</alter>
          <octave>4</octave>
        </pitch>
        <duration>5040</duration>
        <type>eighth</type>
        <stem>down</stem>
        <beam number="1">end</beam>
      </note>
      <note>
        <rest />
        <duration>20160</duration>
        <type>half</type>
      </note>
    </measure>
    <!--========================= Measure 10 =========================-->
    <measure number="10" width="243.63">
      <harmony>
        <root>
          <root-step>G</root-step>
          <root-alter>-1</root-alter>
        </root>
        <kind text="7">dominant</kind>
        <degree>
          <degree-value>11</degree-value>
          <degree-alter>1</degree-alter>
          <degree-type>add</degree-type>
        </degree>
      </harmony>
      <note>
        <rest />
        <duration>5040</duration>
        <type>eighth</type>
        <lyric name="1" number="1">
          <syllabic>single</syllabic>
          <text>Gm11</text>
        </lyric>
      </note>
      <note default-x="50.05" default-y="-15">
        <pitch>
          <step>C</step>
          <octave>5</octave>
        </pitch>
        <duration>5040</duration>
        <type>eighth</type>
        <stem>down</stem>
      </note>
      <note>
        <rest />
        <duration>10080</duration>
        <type>quarter</type>
      </note>
      <note default-x="139.87" default-y="-15">
        <pitch>
          <step>C</step>
          <octave>5</octave>
        </pitch>
        <duration>15120</duration>
        <type>quarter</type>
        <dot />
        <stem>down</stem>
      </note>
      <note default-x="207.28" default-y="-15">
        <pitch>
          <step>C</step>
          <alter>-1</alter>
          <octave>5</octave>
        </pitch>
        <duration>5040</duration>
        <type>eighth</type>
        <accidental>flat</accidental>
        <stem>down</stem>
      </note>
    </measure>
    <!--========================= Measure 11 =========================-->
    <measure number="11" width="267.31">
      <harmony>
        <root>
          <root-step>A</root-step>
          <root-alter>-1</root-alter>
        </root>
        <kind text="maj7">major-seventh</kind>
      </harmony>
      <note default-x="15.5" default-y="-20">
        <pitch>
          <step>B</step>
          <alter>-1</alter>
          <octave>4</octave>
        </pitch>
        <duration>5040</duration>
        <type>eighth</type>
        <stem>up</stem>
        <beam number="1">begin</beam>
        <lyric name="1" number="1">
          <syllabic>single</syllabic>
          <text>C7#9</text>
        </lyric>
      </note>
      <note default-x="47.39" default-y="-40">
        <pitch>
          <step>E</step>
          <alter>-1</alter>
          <octave>4</octave>
        </pitch>
        <duration>5040</duration>
        <type>eighth</type>
        <stem>up</stem>
        <beam number="1">end</beam>
      </note>
      <note>
        <rest />
        <duration>10080</duration>
        <type>quarter</type>
      </note>
      <note>
        <rest />
        <duration>5040</duration>
        <type>eighth</type>
      </note>
      <note>
        <rest />
        <duration>5040</duration>
        <type>eighth</type>
      </note>
      <note>
        <rest />
        <duration>5040</duration>
        <type>eighth</type>
      </note>
      <note default-x="225.96" default-y="-35">
        <pitch>
          <step>F</step>
          <octave>4</octave>
        </pitch>
        <duration>5040</duration>
        <type>eighth</type>
        <stem>up</stem>
      </note>
    </measure>
    <!--========================= Measure 12 =========================-->
    <measure number="12" width="266.12">
      <harmony>
        <root>
          <root-step>F</root-step>
        </root>
        <kind text="7">dominant</kind>
        <degree>
          <degree-value>9</degree-value>
          <degree-alter>-1</degree-alter>
          <degree-type>add</degree-type>
        </degree>
      </harmony>
      <note default-x="19.32" default-y="-30">
        <pitch>
          <step>G</step>
          <alter>-1</alter>
          <octave>4</octave>
        </pitch>
        <duration>10080</duration>
        <type>quarter</type>
        <accidental>flat</accidental>
        <stem>up</stem>
        <lyric name="1" number="1">
          <syllabic>single</syllabic>
          <text>Fm11</text>
        </lyric>
      </note>
      <note default-x="70.9" default-y="-20">
        <pitch>
          <step>B</step>
          <alter>-1</alter>
          <octave>4</octave>
        </pitch>
        <duration>5040</duration>
        <type>eighth</type>
        <stem>down</stem>
        <beam number="1">begin</beam>
      </note>
      <note default-x="103.13" default-y="-10">
        <pitch>
          <step>D</step>
          <alter>-1</alter>
          <octave>5</octave>
        </pitch>
        <duration>5040</duration>
        <type>eighth</type>
        <stem>down</stem>
        <beam number="1">end</beam>
      </note>
      <note>
        <rest />
        <duration>5040</duration>
        <type>eighth</type>
      </note>
      <note>
        <rest />
        <duration>5040</duration>
        <type>eighth</type>
      </note>
      <note>
        <rest />
        <duration>5040</duration>
        <type>eighth</type>
      </note>
      <note default-x="232.08" default-y="-5">
        <pitch>
          <step>E</step>
          <alter>0</alter>
          <octave>5</octave>
        </pitch>
        <duration>5040</duration>
        <tie type="start" />
        <type>eighth</type>
        <accidental>natural</accidental>
        <stem>down</stem>
        <notations>
          <tied type="start" />
        </notations>
      </note>
    </measure>
    <!--========================= Measure 13 =========================-->
    <measure number="13" width="324.54">
      <print new-system="yes">
        <system-layout>
          <system-margins>
            <left-margin>0</left-margin>
            <right-margin>0</right-margin>
          </system-margins>
          <system-distance>124.04</system-distance>
        </system-layout>
      </print>
      <harmony>
        <root>
          <root-step>B</root-step>
          <root-alter>-1</root-alter>
        </root>
        <kind text="7">dominant</kind>
        <degree>
          <degree-value>11</degree-value>
          <degree-alter>1</degree-alter>
          <degree-type>add</degree-type>
        </degree>
      </harmony>
      <note default-x="106.71" default-y="-5">
        <pitch>
          <step>E</step>
          <octave>5</octave>
        </pitch>
        <duration>15120</duration>
        <tie type="stop" />
        <type>quarter</type>
        <dot />
        <stem>down</stem>
        <notations>
          <tied type="stop" />
        </notations>
        <lyric name="1" number="1">
          <syllabic>single</syllabic>
          <text>B7b9</text>
        </lyric>
      </note>
      <note default-x="171.05" default-y="5">
        <pitch>
          <step>G</step>
          <octave>5</octave>
        </pitch>
        <duration>5040</duration>
        <type>eighth</type>
        <stem>down</stem>
      </note>
      <note>
        <rest />
        <duration>5040</duration>
        <type>eighth</type>
      </note>
      <note default-x="237" default-y="-5">
        <pitch>
          <step>E</step>
          <alter>0</alter>
          <octave>5</octave>
        </pitch>
        <duration>5040</duration>
        <type>eighth</type>
        <accidental>natural</accidental>
        <stem>down</stem>
      </note>
      <note>
        <rest />
        <duration>10080</duration>
        <type>quarter</type>
      </note>
    </measure>
    <!--========================= Measure 14 =========================-->
    <measure number="14" width="290.36">
      <harmony>
        <root>
          <root-step>B</root-step>
          <root-alter>-1</root-alter>
        </root>
        <kind text="7">dominant</kind>
        <degree>
          <degree-value>11</degree-value>
          <degree-alter>1</degree-alter>
          <degree-type>add</degree-type>
        </degree>
      </harmony>
      <note>
        <rest />
        <duration>5040</duration>
        <type>eighth</type>
        <lyric name="1" number="1">
          <syllabic>single</syllabic>
          <text>Bb9#11</text>
        </lyric>
      </note>
      <note>
        <rest />
        <duration>5040</duration>
        <type>eighth</type>
      </note>
      <note default-x="83.77" default-y="-5">
        <pitch>
          <step>E</step>
          <alter>0</alter>
          <octave>5</octave>
        </pitch>
        <duration>5040</duration>
        <type>eighth</type>
        <accidental>natural</accidental>
        <stem>down</stem>
        <beam number="1">begin</beam>
      </note>
      <note default-x="117.9" default-y="5">
        <pitch>
          <step>G</step>
          <octave>5</octave>
        </pitch>
        <duration>5040</duration>
        <type>eighth</type>
        <stem>down</stem>
        <beam number="1">end</beam>
      </note>
      <note default-x="152.03" default-y="0">
        <pitch>
          <step>F</step>
          <octave>5</octave>
        </pitch>
        <duration>5040</duration>
        <type>eighth</type>
        <stem>down</stem>
        <beam number="1">begin</beam>
      </note>
      <note default-x="186.16" default-y="-15">
        <pitch>
          <step>C</step>
          <octave>5</octave>
        </pitch>
        <duration>5040</duration>
        <type>eighth</type>
        <stem>down</stem>
        <beam number="1">continue</beam>
      </note>
      <note default-x="220.3" default-y="-25">
        <pitch>
          <step>A</step>
          <alter>-1</alter>
          <octave>4</octave>
        </pitch>
        <duration>5040</duration>
        <type>eighth</type>
        <stem>down</stem>
        <beam number="1">continue</beam>
      </note>
      <note default-x="254.43" default-y="-40">
        <pitch>
          <step>E</step>
          <alter>0</alter>
          <octave>4</octave>
        </pitch>
        <duration>5040</duration>
        <type>eighth</type>
        <accidental>natural</accidental>
        <stem>down</stem>
        <beam number="1">end</beam>
      </note>
    </measure>
    <!--========================= Measure 15 =========================-->
    <measure number="15" width="227">
      <harmony>
        <root>
          <root-step>E</root-step>
          <root-alter>-1</root-alter>
        </root>
        <kind text="7">dominant</kind>
      </harmony>
      <note default-x="18.04" default-y="-25">
        <pitch>
          <step>A</step>
          <alter>0</alter>
          <octave>4</octave>
        </pitch>
        <duration>15120</duration>
        <type>quarter</type>
        <dot />
        <accidental>natural</accidental>
        <stem>up</stem>
        <lyric name="1" number="1">
          <syllabic>single</syllabic>
          <text>Eb13#11</text>
        </lyric>
      </note>
      <note default-x="79.73" default-y="-15">
        <pitch>
          <step>C</step>
          <octave>5</octave>
        </pitch>
        <duration>5040</duration>
        <type>eighth</type>
        <stem>down</stem>
      </note>
      <note>
        <rest />
        <duration>5040</duration>
        <type>eighth</type>
      </note>
      <note default-x="142.98" default-y="-20">
        <pitch>
          <step>B</step>
          <alter>-1</alter>
          <octave>4</octave>
        </pitch>
        <duration>10080</duration>
        <type>quarter</type>
        <stem>down</stem>
      </note>
      <note default-x="193.58" default-y="-5">
        <pitch>
          <step>E</step>
          <alter>-1</alter>
          <octave>5</octave>
        </pitch>
        <duration>5040</duration>
        <type>eighth</type>
        <stem>down</stem>
      </note>
    </measure>
    <!--========================= Measure 16 =========================-->
    <measure number="16" width="243.81">
      <harmony>
        <root>
          <root-step>C</root-step>
        </root>
        <kind text="m7">minor-seventh</kind>
      </harmony>
      <note default-x="15.5" default-y="-5">
        <pitch>
          <step>E</step>
          <alter>-1</alter>
          <octave>5</octave>
        </pitch>
        <duration>5040</duration>
        <type>eighth</type>
        <stem>down</stem>
        <beam number="1">begin</beam>
        <lyric name="1" number="1">
          <syllabic>single</syllabic>
          <text>CmΔ9</text>
        </lyric>
      </note>
      <note default-x="49.24" default-y="-20">
        <pitch>
          <step>B</step>
          <alter>0</alter>
          <octave>4</octave>
        </pitch>
        <duration>5040</duration>
        <type>eighth</type>
        <accidental>natural</accidental>
        <stem>down</stem>
        <beam number="1">end</beam>
      </note>
      <note>
        <rest />
        <duration>10080</duration>
        <type>quarter</type>
      </note>
      <harmony>
        <root>
          <root-step>F</root-step>
        </root>
        <kind text="7">dominant</kind>
      </harmony>
      <note>
        <rest />
        <duration>5040</duration>
        <type>eighth</type>
        <lyric name="1" number="1">
          <syllabic>single</syllabic>
          <text>F+</text>
        </lyric>
      </note>
      <note default-x="170.69" default-y="-15">
        <pitch>
          <step>C</step>
          <octave>5</octave>
        </pitch>
        <duration>15120</duration>
        <type>quarter</type>
        <dot />
        <stem>down</stem>
      </note>
      <barline location="right">
        <bar-style>light-light</bar-style>
      </barline>
    </measure>
    <!--========================= Measure 17 =========================-->
    <measure number="17" width="307.94">
      <print new-system="yes">
        <system-layout>
          <system-margins>
            <left-margin>0</left-margin>
            <right-margin>0</right-margin>
          </system-margins>
          <system-distance>124.04</system-distance>
        </system-layout>
      </print>
      <direction placement="above">
        <direction-type>
          <rehearsal default-x="-25" enclosure="none" font-size="14" halign="center" relative-y="30" valign="middle">A</rehearsal>
        </direction-type>
      </direction>
      <harmony>
        <root>
          <root-step>B</root-step>
          <root-alter>-1</root-alter>
        </root>
        <kind text="m7">minor-seventh</kind>
      </harmony>
      <note default-x="106.71" default-y="-25">
        <pitch>
          <step>A</step>
          <alter>-1</alter>
          <octave>4</octave>
        </pitch>
        <duration>10080</duration>
        <type>quarter</type>
        <stem>up</stem>
        <lyric name="1" number="1">
          <syllabic>single</syllabic>
          <text>Bbm9</text>
        </lyric>
      </note>
      <note>
        <rest />
        <duration>10080</duration>
        <type>quarter</type>
      </note>
      <note>
        <rest />
        <duration>5040</duration>
        <type>eighth</type>
      </note>
      <note default-x="242.89" default-y="-15">
        <pitch>
          <step>C</step>
          <octave>5</octave>
        </pitch>
        <duration>15120</duration>
        <type>quarter</type>
        <dot />
        <stem>down</stem>
      </note>
    </measure>
    <!--========================= Measure 18 =========================-->
    <measure number="18" width="269.11">
      <harmony>
        <root>
          <root-step>B</root-step>
          <root-alter>-1</root-alter>
        </root>
        <kind text="m7">minor-seventh</kind>
      </harmony>
      <note default-x="15.5" default-y="-25">
        <pitch>
          <step>A</step>
          <alter>-1</alter>
          <octave>4</octave>
        </pitch>
        <duration>5040</duration>
        <type>eighth</type>
        <stem>up</stem>
        <lyric name="1" number="1">
          <syllabic>single</syllabic>
          <text>DbmΔ9</text>
        </lyric>
      </note>
      <note default-x="58.17" default-y="-15">
        <pitch>
          <step>C</step>
          <octave>5</octave>
        </pitch>
        <duration>15120</duration>
        <type>quarter</type>
        <dot />
        <stem>down</stem>
      </note>
      <harmony>
        <root>
          <root-step>E</root-step>
          <root-alter>-1</root-alter>
        </root>
        <kind text="7">dominant</kind>
        <degree>
          <degree-value>9</degree-value>
          <degree-alter>-1</degree-alter>
          <degree-type>add</degree-type>
        </degree>
      </harmony>
      <note default-x="141.41" default-y="-40">
        <pitch>
          <step>E</step>
          <alter>0</alter>
          <octave>4</octave>
        </pitch>
        <duration>5040</duration>
        <type>eighth</type>
        <accidental>natural</accidental>
        <stem>up</stem>
        <lyric name="1" number="1">
          <syllabic>single</syllabic>
          <text>Dbm6</text>
        </lyric>
      </note>
      <note default-x="184.07" default-y="-20">
        <pitch>
          <step>B</step>
          <alter>-1</alter>
          <octave>4</octave>
        </pitch>
        <duration>15120</duration>
        <type>quarter</type>
        <dot />
        <stem>down</stem>
      </note>
    </measure>
    <!--========================= Measure 19 =========================-->
    <measure number="19" width="241.92">
      <harmony>
        <root>
          <root-step>A</root-step>
          <root-alter>-1</root-alter>
        </root>
        <kind text="maj7">major-seventh</kind>
      </harmony>
      <note default-x="15.5" default-y="-40">
        <pitch>
          <step>E</step>
          <alter>-1</alter>
          <octave>4</octave>
        </pitch>
        <duration>10080</duration>
        <type>quarter</type>
        <stem>up</stem>
        <lyric name="1" number="1">
          <syllabic>single</syllabic>
          <text>Bbm11</text>
        </lyric>
      </note>
      <note>
        <rest />
        <duration>10080</duration>
        <type>quarter</type>
      </note>
      <note>
        <rest />
        <duration>5040</duration>
        <type>eighth</type>
      </note>
      <note default-x="146.53" default-y="-50">
        <pitch>
          <step>C</step>
          <octave>4</octave>
        </pitch>
        <duration>5040</duration>
        <type>eighth</type>
        <stem>up</stem>
        <beam number="1">begin</beam>
      </note>
      <note default-x="177.73" default-y="-40">
        <pitch>
          <step>E</step>
          <alter>-1</alter>
          <octave>4</octave>
        </pitch>
        <duration>5040</duration>
        <type>eighth</type>
        <stem>up</stem>
        <beam number="1">continue</beam>
      </note>
      <note default-x="208.93" default-y="-35">
        <pitch>
          <step>F</step>
          <octave>4</octave>
        </pitch>
        <duration>5040</duration>
        <type>eighth</type>
        <stem>up</stem>
        <beam number="1">end</beam>
      </note>
    </measure>
    <!--========================= Measure 20 =========================-->
    <measure number="20" width="266.74">
      <harmony>
        <root>
          <root-step>C</root-step>
        </root>
        <kind>half-diminished</kind>
      </harmony>
      <note default-x="19.32" default-y="-30">
        <pitch>
          <step>G</step>
          <alter>-1</alter>
          <octave>4</octave>
        </pitch>
        <duration>10080</duration>
        <type>quarter</type>
        <accidental>flat</accidental>
        <stem>up</stem>
        <lyric name="1" number="1">
          <syllabic>single</syllabic>
          <text>Eb13#9</text>
        </lyric>
      </note>
      <note default-x="79.31" default-y="-20">
        <pitch>
          <step>B</step>
          <alter>-1</alter>
          <octave>4</octave>
        </pitch>
        <duration>5040</duration>
        <type>eighth</type>
        <stem>down</stem>
        <beam number="1">begin</beam>
      </note>
      <note default-x="116.8" default-y="-10">
        <pitch>
          <step>D</step>
          <alter>-1</alter>
          <octave>5</octave>
        </pitch>
        <duration>5040</duration>
        <type>eighth</type>
        <stem>down</stem>
        <beam number="1">end</beam>
      </note>
      <harmony>
        <root>
          <root-step>F</root-step>
        </root>
        <kind text="7">dominant</kind>
      </harmony>
      <note>
        <rest />
        <duration>5040</duration>
        <type>eighth</type>
        <lyric name="1" number="1">
          <syllabic>single</syllabic>
          <text>Cm</text>
        </lyric>
      </note>
      <note default-x="191.79" default-y="-15">
        <pitch>
          <step>C</step>
          <octave>5</octave>
        </pitch>
        <duration>15120</duration>
        <type>quarter</type>
        <dot />
        <stem>down</stem>
      </note>
    </measure>
    <!--========================= Measure 21 =========================-->
    <measure number="21" width="306.92">
      <print new-system="yes">
        <system-layout>
          <system-margins>
            <left-margin>0</left-margin>
            <right-margin>0</right-margin>
          </system-margins>
          <system-distance>124.04</system-distance>
        </system-layout>
      </print>
      <harmony>
        <root>
          <root-step>B</root-step>
          <root-alter>-1</root-alter>
        </root>
        <kind text="m7">minor-seventh</kind>
      </harmony>
      <note default-x="106.71" default-y="-25">
        <pitch>
          <step>A</step>
          <alter>-1</alter>
          <octave>4</octave>
        </pitch>
        <duration>10080</duration>
        <type>quarter</type>
        <stem>up</stem>
        <lyric name="1" number="1">
          <syllabic>single</syllabic>
          <text>Fm7</text>
        </lyric>
      </note>
      <note>
        <rest />
        <duration>10080</duration>
        <type>quarter</type>
      </note>
      <note>
        <rest />
        <duration>5040</duration>
        <type>eighth</type>
      </note>
      <note default-x="242.19" default-y="-15">
        <pitch>
          <step>C</step>
          <octave>5</octave>
        </pitch>
        <duration>15120</duration>
        <type>quarter</type>
        <dot />
        <stem>down</stem>
      </note>
    </measure>
    <!--========================= Measure 22 =========================-->
    <measure number="22" width="268.09">
      <harmony>
        <root>
          <root-step>B</root-step>
          <root-alter>-1</root-alter>
        </root>
        <kind text="m7">minor-seventh</kind>
      </harmony>
      <note default-x="15.5" default-y="-25">
        <pitch>
          <step>A</step>
          <alter>-1</alter>
          <octave>4</octave>
        </pitch>
        <duration>5040</duration>
        <type>eighth</type>
        <stem>up</stem>
        <lyric name="1" number="1">
          <syllabic>single</syllabic>
          <text>Bbm9</text>
        </lyric>
      </note>
      <note default-x="57.99" default-y="-15">
        <pitch>
          <step>C</step>
          <octave>5</octave>
        </pitch>
        <duration>15120</duration>
        <type>quarter</type>
        <dot />
        <stem>down</stem>
      </note>
      <harmony>
        <root>
          <root-step>E</root-step>
          <root-alter>-1</root-alter>
        </root>
        <kind text="7">dominant</kind>
        <degree>
          <degree-value>9</degree-value>
          <degree-alter>-1</degree-alter>
          <degree-type>add</degree-type>
        </degree>
      </harmony>
      <note default-x="140.9" default-y="-40">
        <pitch>
          <step>E</step>
          <alter>0</alter>
          <octave>4</octave>
        </pitch>
        <duration>5040</duration>
        <type>eighth</type>
        <accidental>natural</accidental>
        <stem>up</stem>
        <lyric name="1" number="1">
          <syllabic>single</syllabic>
          <text>Dbm6</text>
        </lyric>
      </note>
      <note default-x="183.39" default-y="-20">
        <pitch>
          <step>B</step>
          <alter>-1</alter>
          <octave>4</octave>
        </pitch>
        <duration>15120</duration>
        <type>quarter</type>
        <dot />
        <stem>down</stem>
      </note>
    </measure>
    <!--========================= Measure 23 =========================-->
    <measure number="23" width="240.9">
      <harmony>
        <root>
          <root-step>A</root-step>
          <root-alter>-1</root-alter>
        </root>
        <kind text="maj7">major-seventh</kind>
      </harmony>
      <note default-x="15.5" default-y="-40">
        <pitch>
          <step>E</step>
          <alter>-1</alter>
          <octave>4</octave>
        </pitch>
        <duration>10080</duration>
        <type>quarter</type>
        <stem>up</stem>
        <lyric name="1" number="1">
          <syllabic>single</syllabic>
          <text>Bbm11</text>
        </lyric>
      </note>
      <note>
        <rest />
        <duration>10080</duration>
        <type>quarter</type>
      </note>
      <note>
        <rest />
        <duration>5040</duration>
        <type>eighth</type>
      </note>
      <note default-x="145.94" default-y="-50">
        <pitch>
          <step>C</step>
          <octave>4</octave>
        </pitch>
        <duration>5040</duration>
        <type>eighth</type>
        <stem>up</stem>
        <beam number="1">begin</beam>
      </note>
      <note default-x="176.99" default-y="-40">
        <pitch>
          <step>E</step>
          <alter>-1</alter>
          <octave>4</octave>
        </pitch>
        <duration>5040</duration>
        <type>eighth</type>
        <stem>up</stem>
        <beam number="1">continue</beam>
      </note>
      <note default-x="208.05" default-y="-35">
        <pitch>
          <step>F</step>
          <octave>4</octave>
        </pitch>
        <duration>5040</duration>
        <type>eighth</type>
        <stem>up</stem>
        <beam number="1">end</beam>
      </note>
    </measure>
    <!--========================= Measure 24 =========================-->
    <measure number="24" width="269.8">
      <harmony>
        <root>
          <root-step>E</root-step>
          <root-alter>-1</root-alter>
        </root>
        <kind text="m7">minor-seventh</kind>
      </harmony>
      <note default-x="19.32" default-y="-30">
        <pitch>
          <step>G</step>
          <alter>-1</alter>
          <octave>4</octave>
        </pitch>
        <duration>10080</duration>
        <type>quarter</type>
        <accidental>flat</accidental>
        <stem>up</stem>
        <lyric name="1" number="1">
          <syllabic>single</syllabic>
          <text>Eb13#9</text>
        </lyric>
      </note>
      <note default-x="70.51" default-y="-20">
        <pitch>
          <step>B</step>
          <alter>-1</alter>
          <octave>4</octave>
        </pitch>
        <duration>5040</duration>
        <type>eighth</type>
        <stem>down</stem>
        <beam number="1">begin</beam>
      </note>
      <note default-x="102.51" default-y="-10">
        <pitch>
          <step>D</step>
          <alter>-1</alter>
          <octave>5</octave>
        </pitch>
        <duration>5040</duration>
        <type>eighth</type>
        <stem>down</stem>
        <beam number="1">end</beam>
      </note>
      <harmony>
        <root>
          <root-step>A</root-step>
          <root-alter>-1</root-alter>
        </root>
        <kind text="7">dominant</kind>
      </harmony>
      <note>
        <rest />
        <duration>5040</duration>
        <type>eighth</type>
        <lyric name="1" number="1">
          <syllabic>single</syllabic>
          <text>Ab7#9</text>
        </lyric>
      </note>
      <note>
        <rest />
        <duration>5040</duration>
        <type>eighth</type>
      </note>
      <note>
        <rest />
        <duration>5040</duration>
        <type>eighth</type>
      </note>
      <note>
        <rest />
        <duration>5040</duration>
        <type>eighth</type>
      </note>
      <barline location="right">
        <bar-style>light-light</bar-style>
      </barline>
    </measure>
    <!--========================= Measure 25 =========================-->
    <measure number="25" width="341.24">
      <print new-system="yes">
        <system-layout>
          <system-margins>
            <left-margin>0</left-margin>
            <right-margin>0</right-margin>
          </system-margins>
          <system-distance>124.04</system-distance>
        </system-layout>
      </print>
      <direction placement="above">
        <direction-type>
          <rehearsal default-x="-25" enclosure="none" font-size="14" halign="center" relative-y="30" valign="middle">C</rehearsal>
        </direction-type>
      </direction>
      <harmony>
        <root>
          <root-step>D</root-step>
          <root-alter>-1</root-alter>
        </root>
        <kind text="maj7">major-seventh</kind>
      </harmony>
      <note>
        <rest />
        <duration>5040</duration>
        <type>eighth</type>
        <lyric name="1" number="1">
          <syllabic>single</syllabic>
          <text>Dbadd9</text>
        </lyric>
      </note>
      <note default-x="139.04" default-y="-45">
        <pitch>
          <step>D</step>
          <alter>-1</alter>
          <octave>4</octave>
        </pitch>
        <duration>10080</duration>
        <type>quarter</type>
        <stem>up</stem>
      </note>
      <note default-x="190.75" default-y="-35">
        <pitch>
          <step>F</step>
          <octave>4</octave>
        </pitch>
        <duration>5040</duration>
        <type>eighth</type>
        <stem>up</stem>
      </note>
      <note default-x="223.07" default-y="-35">
        <pitch>
          <step>F</step>
          <octave>4</octave>
        </pitch>
        <duration>5040</duration>
        <type>eighth</type>
        <stem>up</stem>
      </note>
      <note default-x="255.4" default-y="-25">
        <pitch>
          <step>A</step>
          <alter>-1</alter>
          <octave>4</octave>
        </pitch>
        <duration>10080</duration>
        <type>quarter</type>
        <stem>up</stem>
      </note>
      <note default-x="307.11" default-y="-20">
        <pitch>
          <step>B</step>
          <alter>-1</alter>
          <octave>4</octave>
        </pitch>
        <duration>5040</duration>
        <type>eighth</type>
        <stem>down</stem>
      </note>
    </measure>
    <!--========================= Measure 26 =========================-->
    <measure number="26" width="243.47">
      <harmony>
        <root>
          <root-step>G</root-step>
          <root-alter>-1</root-alter>
        </root>
        <kind text="7">dominant</kind>
        <degree>
          <degree-value>11</degree-value>
          <degree-alter>1</degree-alter>
          <degree-type>add</degree-type>
        </degree>
      </harmony>
      <note default-x="15.5" default-y="-5">
        <pitch>
          <step>E</step>
          <alter>-1</alter>
          <octave>5</octave>
        </pitch>
        <duration>15120</duration>
        <type>quarter</type>
        <dot />
        <stem>down</stem>
        <lyric name="1" number="1">
          <syllabic>single</syllabic>
          <text>Gø7</text>
        </lyric>
      </note>
      <note default-x="78.98" default-y="-15">
        <pitch>
          <step>C</step>
          <octave>5</octave>
        </pitch>
        <duration>5040</duration>
        <type>eighth</type>
        <stem>down</stem>
      </note>
      <note>
        <rest />
        <duration>5040</duration>
        <type>eighth</type>
      </note>
      <note>
        <rest />
        <duration>5040</duration>
        <type>eighth</type>
      </note>
      <note>
        <rest />
        <duration>5040</duration>
        <type>eighth</type>
      </note>
      <note default-x="209.13" default-y="-15">
        <pitch>
          <step>C</step>
          <alter>-1</alter>
          <octave>5</octave>
        </pitch>
        <duration>5040</duration>
        <type>eighth</type>
        <accidental>flat</accidental>
        <stem>down</stem>
      </note>
    </measure>
    <!--========================= Measure 27 =========================-->
    <measure number="27" width="259.5">
      <harmony>
        <root>
          <root-step>A</root-step>
          <root-alter>-1</root-alter>
        </root>
        <kind text="maj7">major-seventh</kind>
      </harmony>
      <note default-x="15.5" default-y="-20">
        <pitch>
          <step>B</step>
          <alter>-1</alter>
          <octave>4</octave>
        </pitch>
        <duration>15120</duration>
        <type>quarter</type>
        <dot />
        <stem>down</stem>
        <lyric name="1" number="1">
          <syllabic>single</syllabic>
          <text>C7b9</text>
        </lyric>
      </note>
      <note default-x="81.94" default-y="-30">
        <pitch>
          <step>G</step>
          <octave>4</octave>
        </pitch>
        <duration>5040</duration>
        <type>eighth</type>
        <stem>up</stem>
      </note>
      <note>
        <rest />
        <duration>5040</duration>
        <type>eighth</type>
      </note>
      <note>
        <rest />
        <duration>5040</duration>
        <type>eighth</type>
      </note>
      <note>
        <rest />
        <duration>5040</duration>
        <type>eighth</type>
      </note>
      <note default-x="218.14" default-y="-25">
        <pitch>
          <step>A</step>
          <alter>-1</alter>
          <octave>4</octave>
        </pitch>
        <duration>5040</duration>
        <type>eighth</type>
        <stem>up</stem>
      </note>
    </measure>
    <!--========================= Measure 28 =========================-->
    <measure number="28" width="241.5">
      <harmony>
        <root>
          <root-step>C</root-step>
        </root>
        <kind text="m7">minor-seventh</kind>
      </harmony>
      <note default-x="15.5" default-y="-30">
        <pitch>
          <step>G</step>
          <octave>4</octave>
        </pitch>
        <duration>5040</duration>
        <type>eighth</type>
        <stem>up</stem>
        <lyric name="1" number="1">
          <syllabic>single</syllabic>
          <text>Fm13</text>
        </lyric>
      </note>
      <note default-x="49.72" default-y="-25">
        <pitch>
          <step>A</step>
          <alter>-1</alter>
          <octave>4</octave>
        </pitch>
        <duration>10080</duration>
        <type>quarter</type>
        <stem>up</stem>
      </note>
      <note default-x="104.48" default-y="-35">
        <pitch>
          <step>F</step>
          <octave>4</octave>
        </pitch>
        <duration>5040</duration>
        <type>eighth</type>
        <stem>up</stem>
      </note>
      <harmony>
        <root>
          <root-step>F</root-step>
        </root>
        <kind text="7">dominant</kind>
      </harmony>
      <note>
        <rest />
        <duration>5040</duration>
        <type>eighth</type>
        <lyric name="1" number="1">
          <syllabic>single</syllabic>
          <text>Bbm9</text>
        </lyric>
      </note>
      <note default-x="172.93" default-y="-15">
        <pitch>
          <step>C</step>
          <octave>5</octave>
        </pitch>
        <duration>15120</duration>
        <type>quarter</type>
        <dot />
        <stem>down</stem>
      </note>
    </measure>
    <!--========================= Measure 29 =========================-->
    <measure number="29" width="364.17">
      <print new-system="yes">
        <system-layout>
          <system-margins>
            <left-margin>0</left-margin>
            <right-margin>0</right-margin>
          </system-margins>
          <system-distance>124.04</system-distance>
        </system-layout>
      </print>
      <harmony>
        <root>
          <root-step>F</root-step>
        </root>
        <kind text="m7">minor-seventh</kind>
      </harmony>
      <note default-x="106.71" default-y="-25">
        <pitch>
          <step>A</step>
          <alter>-1</alter>
          <octave>4</octave>
        </pitch>
        <duration>10080</duration>
        <type>quarter</type>
        <stem>up</stem>
        <lyric name="1" number="1">
          <syllabic>single</syllabic>
          <text>Eb7add3sus</text>
        </lyric>
      </note>
      <note>
        <rest />
        <duration>10080</duration>
        <type>quarter</type>
      </note>
      <harmony>
        <root>
          <root-step>B</root-step>
          <root-alter>-1</root-alter>
        </root>
        <kind text="7">dominant</kind>
      </harmony>
      <note>
        <rest />
        <duration>5040</duration>
        <type>eighth</type>
        <lyric name="1" number="1">
          <syllabic>single</syllabic>
          <text>AbΔ7</text>
        </lyric>
      </note>
      <note default-x="281.28" default-y="-15">
        <pitch>
          <step>C</step>
          <octave>5</octave>
        </pitch>
        <duration>15120</duration>
        <type>quarter</type>
        <dot />
        <stem>down</stem>
      </note>
    </measure>
    <!--========================= Measure 30 =========================-->
    <measure number="30" width="312.43">
      <harmony>
        <root>
          <root-step>B</root-step>
          <root-alter>-1</root-alter>
        </root>
        <kind text="m7">minor-seventh</kind>
      </harmony>
      <note default-x="15.5" default-y="-25">
        <pitch>
          <step>A</step>
          <alter>-1</alter>
          <octave>4</octave>
        </pitch>
        <duration>5040</duration>
        <type>eighth</type>
        <stem>up</stem>
        <lyric name="1" number="1">
          <syllabic>single</syllabic>
          <text>Ab6</text>
        </lyric>
      </note>
      <note default-x="57.96" default-y="-15">
        <pitch>
          <step>C</step>
          <octave>5</octave>
        </pitch>
        <duration>15120</duration>
        <type>quarter</type>
        <dot />
        <stem>down</stem>
      </note>
      <harmony>
        <root>
          <root-step>E</root-step>
          <root-alter>-1</root-alter>
        </root>
        <kind text="7">dominant</kind>
      </harmony>
      <note default-x="140.8" default-y="-15">
        <pitch>
          <step>C</step>
          <octave>5</octave>
        </pitch>
        <duration>5040</duration>
        <type>eighth</type>
        <stem>up</stem>
        <beam number="1">begin</beam>
        <lyric name="1" number="1">
          <syllabic>single</syllabic>
          <text>DbΔ9#11</text>
        </lyric>
      </note>
      <note default-x="183.25" default-y="-40">
        <pitch>
          <step>E</step>
          <alter>-1</alter>
          <octave>4</octave>
        </pitch>
        <duration>5040</duration>
        <type>eighth</type>
        <stem>up</stem>
        <beam number="1">continue</beam>
      </note>
      <note default-x="225.71" default-y="-30">
        <pitch>
          <step>G</step>
          <octave>4</octave>
        </pitch>
        <duration>5040</duration>
        <type>eighth</type>
        <stem>up</stem>
        <beam number="1">continue</beam>
      </note>
      <note default-x="268.17" default-y="-25">
        <pitch>
          <step>A</step>
          <alter>-1</alter>
          <octave>4</octave>
        </pitch>
        <duration>5040</duration>
        <type>eighth</type>
        <stem>up</stem>
        <beam number="1">end</beam>
      </note>
    </measure>
    <!--========================= Measure 31 =========================-->
    <measure number="31" width="202.49">
      <harmony>
        <root>
          <root-step>A</root-step>
          <root-alter>-1</root-alter>
        </root>
        <kind text="maj7">major-seventh</kind>
      </harmony>
      <note>
        <rest measure="yes" />
        <duration>40320</duration>
        <lyric name="1" number="1">
          <syllabic>single</syllabic>
          <text>Dø7</text>
        </lyric>
      </note>
    </measure>
    <!--========================= Measure 32 =========================-->
    <measure number="32" width="206.63">
      <harmony>
        <root>
          <root-step>A</root-step>
          <root-alter>-1</root-alter>
        </root>
        <kind text="maj7">major-seventh</kind>
      </harmony>
      <note>
        <rest measure="yes" />
        <duration>40320</duration>
        <lyric name="1" number="1">
          <syllabic>single</syllabic>
          <text>AbΔ7</text>
        </lyric>
      </note>
      <barline location="right">
        <bar-style>light-heavy</bar-style>
      </barline>
    </measure>
  </part>
</score-partwise>